<svg width="30" height="32" viewBox="0 0 30 32" fill="none" xmlns="http://www.w3.org/2000/svg">
<path d="M12.7118 29.037C12.7118 29.6231 12.5627 30.1959 12.2833 30.6832C12.004 31.1704 11.6069 31.5502 11.1424 31.7745C10.6778 31.9987 10.1666 32.0574 9.67346 31.9431C9.18029 31.8287 8.72728 31.5465 8.37173 31.1322C8.01617 30.7178 7.77404 30.1898 7.67594 29.6151C7.57784 29.0403 7.62819 28.4446 7.82061 27.9032C8.01304 27.3617 8.3389 26.899 8.75699 26.5734C9.17508 26.2478 9.66662 26.0741 10.1695 26.0741C10.8437 26.0741 11.4904 26.3862 11.9672 26.9419C12.444 27.4976 12.7118 28.2512 12.7118 29.037ZM23.3897 26.0741C22.8869 26.0741 22.3954 26.2478 21.9773 26.5734C21.5592 26.899 21.2333 27.3617 21.0409 27.9032C20.8485 28.4446 20.7981 29.0403 20.8962 29.6151C20.9943 30.1898 21.2365 30.7178 21.592 31.1322C21.9476 31.5465 22.4006 31.8287 22.8937 31.9431C23.3869 32.0574 23.8981 31.9987 24.3627 31.7745C24.8272 31.5502 25.2243 31.1704 25.5036 30.6832C25.783 30.1959 25.9321 29.6231 25.9321 29.037C25.9321 28.2512 25.6642 27.4976 25.1875 26.9419C24.7107 26.3862 24.064 26.0741 23.3897 26.0741ZM29.9325 8.22667L26.4635 21.3674C26.242 22.2172 25.7913 22.9611 25.1783 23.4888C24.5652 24.0164 23.8226 24.2996 23.0605 24.2963H10.5419C9.76891 24.2934 9.01754 23.9986 8.40038 23.4562C7.78322 22.9137 7.3335 22.1528 7.11862 21.2874L2.77245 3.55556H1.52542C1.12085 3.55556 0.732856 3.36825 0.446784 3.03486C0.160713 2.70146 0 2.24927 0 1.77778C0 1.30628 0.160713 0.854097 0.446784 0.520699C0.732856 0.187301 1.12085 0 1.52542 0H3.15507C3.7072 0.00198791 4.24389 0.212566 4.68463 0.600145C5.12537 0.987724 5.4464 1.53141 5.59955 2.14963L6.52625 5.92593H28.4745C28.7132 5.9259 28.9486 5.99118 29.1617 6.11651C29.3749 6.24184 29.5598 6.42373 29.7016 6.64753C29.8434 6.87133 29.9382 7.1308 29.9783 7.40507C30.0184 7.67934 30.0027 7.96075 29.9325 8.22667ZM26.4088 9.48148H7.397L10.0525 20.3111C10.0829 20.435 10.1471 20.544 10.2354 20.6215C10.3238 20.699 10.4313 20.7409 10.5419 20.7407H23.0605C23.1693 20.741 23.2754 20.7005 23.363 20.6253C23.4506 20.5501 23.5153 20.4442 23.5474 20.323L26.4088 9.48148Z" fill="black"/>
</svg>
