<svg width="34" height="63" viewBox="0 0 34 63" fill="none" xmlns="http://www.w3.org/2000/svg">
<path d="M13.1042 62.25V54.8146C9.9757 54.1229 7.27517 52.7972 5.0026 50.8375C2.73003 48.8778 1.0625 46.1111 0 42.5375L6.55208 39.9437C7.4375 42.7104 8.75087 44.8142 10.4922 46.2552C12.2335 47.6962 14.5208 48.4167 17.3542 48.4167C19.7743 48.4167 21.8255 47.8835 23.5078 46.8172C25.1901 45.7509 26.0313 44.0937 26.0313 41.8458C26.0313 39.8285 25.3819 38.229 24.0833 37.0474C22.7847 35.8658 19.7743 34.5257 15.0521 33.0271C9.9757 31.4708 6.49306 29.612 4.60417 27.4505C2.71528 25.2891 1.77083 22.6521 1.77083 19.5396C1.77083 15.7931 3.01042 12.8823 5.48958 10.8073C7.96875 8.73229 10.5069 7.55069 13.1042 7.2625V0H20.1875V7.2625C23.1389 7.72361 25.5738 8.77552 27.4922 10.4182C29.4106 12.0609 30.8125 14.0639 31.6979 16.4271L25.1458 19.1937C24.4375 17.3493 23.434 15.966 22.1354 15.0437C20.8368 14.1215 19.066 13.6604 16.8229 13.6604C14.2257 13.6604 12.2483 14.2224 10.8906 15.3464C9.53299 16.4703 8.85417 17.8681 8.85417 19.5396C8.85417 21.4417 9.73958 22.9403 11.5104 24.0354C13.2813 25.1306 16.3507 26.2833 20.7188 27.4937C24.7917 28.6465 27.8759 30.4766 29.9714 32.9839C32.0668 35.4911 33.1146 38.3875 33.1146 41.6729C33.1146 45.7653 31.875 48.8778 29.3958 51.0104C26.9167 53.1431 23.8472 54.4687 20.1875 54.9875V62.25H13.1042Z" fill="black"/>
</svg>
