<svg width="30" height="32" viewBox="0 0 30 32" fill="none" xmlns="http://www.w3.org/2000/svg">
<path d="M19.16 13.1928C17.88 13.986 16.4933 14.3826 15 14.3826C14.0133 14.3826 13.06 14.1971 12.14 13.8261C11.22 13.4551 10.4067 12.9369 9.7 12.2716C8.99333 11.6063 8.45333 10.8323 8.08 9.94951C7.70667 9.06673 7.52 8.15195 7.52 7.2052C7.52 5.72109 7.94 4.37772 8.78 3.17508C9.62 1.97244 10.7267 1.09605 12.1 0.54591C13.4733 -0.0042305 14.9333 -0.138569 16.48 0.1429C17.92 0.398781 19.1867 1.04488 20.28 2.08119C21.3733 3.11751 22.06 4.34574 22.34 5.76587C22.62 7.18601 22.48 8.57416 21.92 9.93032C21.36 11.2865 20.44 12.374 19.16 13.1928ZM17.32 3.86596C16.6267 3.43096 15.8533 3.21346 15 3.21346C13.88 3.21346 12.8933 3.59728 12.04 4.36493C11.24 5.18374 10.84 6.1305 10.84 7.2052C10.84 8.02401 11.0733 8.76607 11.54 9.43136C12.0067 10.0966 12.6267 10.5828 13.4 10.8899C14.1733 11.1969 14.9733 11.2737 15.8 11.1202C16.6267 10.9666 17.34 10.602 17.94 10.0263C18.54 9.45054 18.92 8.76607 19.08 7.97284C19.24 7.17961 19.16 6.41197 18.84 5.66991C18.52 4.92786 18.0133 4.32654 17.32 3.86596ZM4.4 20.2167C5.78667 18.8605 7.4 17.8178 9.24 17.0886C11.08 16.3593 13 15.9947 15 15.9947C17 15.9947 18.92 16.3593 20.76 17.0886C22.6 17.8178 24.22 18.8541 25.62 20.1975C27.02 21.5409 28.1 23.0954 28.86 24.8609C29.62 26.6265 30 28.4689 30 30.388C30 30.8485 29.8267 31.2324 29.48 31.5394C29.1333 31.8465 28.7467 32 28.32 32H20C19.5467 32 19.1533 31.8401 18.82 31.5202C18.4867 31.2004 18.32 30.823 18.32 30.388C18.32 29.953 18.4867 29.5755 18.82 29.2557C19.1533 28.9358 19.5467 28.7759 20 28.7759H26.56C26.3467 27.4453 25.9067 26.1851 25.24 24.9953C24.5733 23.8054 23.7067 22.7755 22.64 21.9055C21.5733 21.0355 20.3867 20.3638 19.08 19.8905C17.7733 19.4171 16.4133 19.1804 15 19.1804C13.5867 19.1804 12.2267 19.4171 10.92 19.8905C9.61333 20.3638 8.42667 21.0355 7.36 21.9055C6.29333 22.7755 5.42667 23.8054 4.76 24.9953C4.09333 26.1851 3.65333 27.4453 3.44 28.7759H10C10.4267 28.7759 10.8267 28.9294 11.2 29.2365C11.52 29.5947 11.68 29.9785 11.68 30.388C11.68 30.7974 11.52 31.1812 11.2 31.5394C10.8267 31.8465 10.4267 32 10 32H1.68C1.25333 32 0.866667 31.8465 0.52 31.5394C0.173333 31.2324 0 30.8485 0 30.388C0 28.4689 0.38 26.6329 1.14 24.8801C1.9 23.1273 2.98667 21.5729 4.4 20.2167Z" fill="#030712"/>
</svg>
