<svg width="56" height="56" viewBox="0 0 56 56" fill="none" xmlns="http://www.w3.org/2000/svg">
<circle cx="28" cy="28" r="28" fill="#D9D9D9"/>
<path d="M28.2781 27.6174C25.5998 27.6174 23.3071 26.6638 21.3998 24.7566C19.4926 22.8493 18.5389 20.5566 18.5389 17.8783C18.5389 15.2 19.4926 12.9073 21.3998 11C23.3071 9.09278 25.5998 8.13916 28.2781 8.13916C30.9563 8.13916 33.2491 9.09278 35.1563 11C37.0636 12.9073 38.0172 15.2 38.0172 17.8783C38.0172 20.5566 37.0636 22.8493 35.1563 24.7566C33.2491 26.6638 30.9563 27.6174 28.2781 27.6174ZM8.7998 47.0957V40.2783C8.7998 38.8986 9.15488 37.6305 9.86502 36.4739C10.5752 35.3174 11.5186 34.4348 12.6955 33.8261C15.2114 32.5681 17.7679 31.6247 20.365 30.9957C22.9621 30.3667 25.5998 30.0522 28.2781 30.0522C30.9563 30.0522 33.594 30.3667 36.1911 30.9957C38.7882 31.6247 41.3447 32.5681 43.8607 33.8261C45.0375 34.4348 45.981 35.3174 46.6911 36.4739C47.4013 37.6305 47.7563 38.8986 47.7563 40.2783V47.0957H8.7998ZM13.6694 42.2261H42.8868V40.2783C42.8868 39.8319 42.7752 39.4261 42.552 39.0609C42.3288 38.6957 42.0346 38.4116 41.6694 38.2087C39.4781 37.1131 37.2665 36.2913 35.0346 35.7435C32.8027 35.1957 30.5505 34.9218 28.2781 34.9218C26.0056 34.9218 23.7534 35.1957 21.5215 35.7435C19.2897 36.2913 17.0781 37.1131 14.8868 38.2087C14.5215 38.4116 14.2273 38.6957 14.0042 39.0609C13.781 39.4261 13.6694 39.8319 13.6694 40.2783V42.2261ZM28.2781 22.7479C29.6172 22.7479 30.7636 22.271 31.7172 21.3174C32.6708 20.3638 33.1476 19.2174 33.1476 17.8783C33.1476 16.5392 32.6708 15.3928 31.7172 14.4392C30.7636 13.4855 29.6172 13.0087 28.2781 13.0087C26.9389 13.0087 25.7926 13.4855 24.8389 14.4392C23.8853 15.3928 23.4085 16.5392 23.4085 17.8783C23.4085 19.2174 23.8853 20.3638 24.8389 21.3174C25.7926 22.271 26.9389 22.7479 28.2781 22.7479Z" fill="black"/>
</svg>
